<?xml version="1.0" encoding="utf-8"?>
<!DOCTYPE svg PUBLIC "-//W3C//DTD SVG 1.1//EN" "http://www.w3.org/Graphics/SVG/1.1/DTD/svg11.dtd">
<svg version="1.1" width="1920" height="1080" viewBox="0 0 1920 1080" xmlns="http://www.w3.org/2000/svg">
	<g style="stroke-width:1; fill-opacity: 0.11; stroke-opacity: 0.33; stroke:green; fill:green; ">
		<polygon points="407.34232,601.24023 408.0949,600.4876 1463.8827,600.4876 1463.8827,600.4876 1463.8827,791.473 1385.3374,870.0184 676.1205,870.0184 407.34232,601.2402" />
		<polygon points="568.7838,506.00732 770.1385,304.65265 1857.7935,304.65265 1857.7936,304.6527 1857.7936,345.40222 1697.1885,506.0073 568.7838,506.0073 568.7838,506.0073" />
		<polygon points="1209.399,508.29236 1666.1097,51.58167 1866.4443,51.58167 1866.4443,51.581665 1866.4443,829.97266 1641.256,1055.161 1641.2559,1055.161 1209.399,623.3042" />
		<polygon points="1293.1006,347.17554 1586.346,53.930206 1884.7761,53.930206 1884.7761,53.930176 1884.7761,572.9846 1555.7869,901.9739 1555.7869,901.9739 1293.1006,639.2876" />
		<polygon points="1048.0131,104.35437 1048.0131,104.35435 1145.1843,104.35435 1775.9551,735.1251 1775.9551,735.125 1775.955,735.1251 1503.6804,735.1251 1048.0131,279.4577" />
		<polygon points="371.7942,491.46027 371.7942,491.46027 906.2494,491.46027 1228.2712,813.4821 1228.2712,813.4822 993.66785,1048.0856 578.6831,1048.0856 371.7942,841.19666" />
		<polygon points="77.14127,416.2447 77.141266,416.2447 621.27625,416.2447 969.64294,764.6114 969.64294,764.61145 718.50104,1015.75336 665.1067,1015.75336 77.14127,427.78793" />
		<polygon points="243.64053,304.38956 243.64053,304.38956 1183.1775,304.38956 1725.3441,846.5562 1725.3441,846.5563 1725.3442,846.5562 785.8072,846.5562 243.64053,304.38956" />
		<polygon points="296.03107,250.1673 296.03104,250.16733 907.9614,250.16733 1185.2809,527.48676 1185.2809,527.4867 945.2917,767.4759 790.93774,767.4759 296.03107,272.5692" />
		<polygon points="386.43726,933.3191 592.8174,726.93896 1633.4521,726.93896 1633.4521,726.93896 1633.4521,726.93896 1427.072,933.31915 386.43726,933.31915 386.43726,933.31915" />
		<polygon points="182.77019,892.12225 827.7494,247.14305 1194.7483,247.14305 1703.2814,755.67615 1703.2814,952.2975 1703.2815,952.2974 242.94537,952.2974 182.77019,892.12225" />
		<polygon points="339.86853,689.8799 781.7932,247.95517 1627.2836,247.95517 1899.9487,520.62036 1899.9487,520.62036 1730.6892,689.8799 339.86853,689.8799 339.86853,689.8799" />
		<polygon points="1246.1459,420.61658 1541.7897,124.97281 1541.7897,124.97281 1541.7897,124.97278 1541.7897,616.0958 1389.3705,768.515 1246.1459,768.515 1246.1459,768.515" />
		<polygon points="255.99123,635.44385 532.9143,358.52072 1036.6951,358.52072 1036.6951,358.52075 1036.6951,358.52075 433.8324,961.3834 255.99121,961.3834 255.99123,961.3834" />
		<polygon points="1281.549,507.13367 1281.549,507.13364 1281.549,507.13364 1586.9741,812.55884 1586.9741,861.572 1586.9741,861.57196 1558.5107,861.57196 1281.549,584.61017" />
		<polygon points="645.2674,318.19135 645.26746,318.1913 1773.9706,318.1913 1782.5759,326.79663 1782.5759,326.79663 1399.4441,709.9285 1002.83636,709.9285 645.2674,352.35956" />
		<polygon points="371.3186,91.25961 371.3186,91.259605 1402.588,91.259605 1562.747,251.41858 1562.747,372.31067 1194.2908,740.76685 1020.8258,740.76685 371.3186,91.25961" />
		<polygon points="145.06061,956.10846 145.06061,956.10846 1176.5071,956.10846 1205.1415,984.74286 1205.1415,984.7428 1204.0283,985.85596 174.8081,985.85596 145.06061,956.10846" />
		<polygon points="300.30316,131.2514 313.8174,117.73716 1295.5903,117.73716 1295.5903,117.73718 1295.5903,882.1304 1166.5562,1011.16455 1166.556,1011.16455 300.30316,144.91168" />
		<polygon points="443.7579,662.9094 932.68884,173.97852 942.37537,173.97852 1293.9097,525.5128 1293.9097,612.65625 1243.6565,662.9094 443.7579,662.9094 443.7579,662.9094" />
		<polygon points="29.554533,395.3766 340.13037,84.80076 1618.9117,84.80076 1618.9117,84.80078 1618.9117,84.80078 950.5376,753.1749 387.35287,753.1749 29.554533,395.3766" />
		<polygon points="547.0116,546.83923 547.01166,546.8392 1320.6055,546.8392 1822.1311,1048.3649 1822.1311,1048.365 1822.1312,1048.3649 1048.5374,1048.3649 547.0116,546.8392" />
	</g>
	<g style="stroke-width:1; fill-opacity: 0.11; stroke-opacity: 0.33; stroke:blue; fill:blue; ">
		<polygon points="407.34232,600.4876 1463.8827,600.4876 1463.8827,870.0184 407.34232,870.0184" />
		<polygon points="568.7838,304.65265 1857.7936,304.65265 1857.7936,506.0073 568.7838,506.0073" />
		<polygon points="1209.399,51.58167 1866.4443,51.58167 1866.4443,1055.161 1209.399,1055.161" />
		<polygon points="1293.1006,53.930206 1884.7761,53.930206 1884.7761,901.9739 1293.1006,901.9739" />
		<polygon points="1048.0131,104.35435 1775.9551,104.35435 1775.9551,735.1251 1048.0131,735.1251" />
		<polygon points="371.7942,491.46027 1228.2712,491.46027 1228.2712,1048.0856 371.7942,1048.0856" />
		<polygon points="77.14127,416.2447 969.64294,416.2447 969.64294,1015.75336 77.14127,1015.75336" />
		<polygon points="243.64053,304.38956 1725.3441,304.38956 1725.3441,846.5562 243.64053,846.5562" />
		<polygon points="296.03107,250.16733 1185.2809,250.16733 1185.2809,767.4759 296.03107,767.4759" />
		<polygon points="386.43726,726.93896 1633.4521,726.93896 1633.4521,933.31915 386.43726,933.31915" />
		<polygon points="182.77019,247.14305 1703.2814,247.14305 1703.2814,952.2974 182.77019,952.2974" />
		<polygon points="339.86853,247.95517 1899.9487,247.95517 1899.9487,689.8799 339.86853,689.8799" />
		<polygon points="1246.1459,124.97281 1541.7897,124.97281 1541.7897,768.515 1246.1459,768.515" />
		<polygon points="255.99123,358.52072 1036.6951,358.52072 1036.6951,961.3834 255.99123,961.3834" />
		<polygon points="1281.549,507.13364 1586.9741,507.13364 1586.9741,861.57196 1281.549,861.57196" />
		<polygon points="645.2674,318.1913 1782.5759,318.1913 1782.5759,709.9285 645.2674,709.9285" />
		<polygon points="371.3186,91.259605 1562.747,91.259605 1562.747,740.76685 371.3186,740.76685" />
		<polygon points="145.06061,956.10846 1205.1415,956.10846 1205.1415,985.85596 145.06061,985.85596" />
		<polygon points="300.30316,117.73716 1295.5903,117.73716 1295.5903,1011.16455 300.30316,1011.16455" />
		<polygon points="443.7579,173.97852 1293.9097,173.97852 1293.9097,662.9094 443.7579,662.9094" />
		<polygon points="29.554533,84.80076 1618.9117,84.80076 1618.9117,753.1749 29.554533,753.1749" />
		<polygon points="547.0116,546.8392 1822.1311,546.8392 1822.1311,1048.3649 547.0116,1048.3649" />
	</g>
</svg>